<svg width="787" height="1081" viewBox="0 0 787 1081" fill="none" xmlns="http://www.w3.org/2000/svg">
<mask id="mask0_94_10458" style="mask-type:alpha" maskUnits="userSpaceOnUse" x="0" y="0" width="787" height="1081">
<rect x="0.765625" y="0.603516" width="785.483" height="1080" fill="#0F0F1C"/>
</mask>
<g mask="url(#mask0_94_10458)">
<rect x="-428.594" y="-434.238" width="1657.69" height="1657.69" fill="#0F0F1C"/>
<path d="M175.547 496.943H88.2227V584.268H175.547V496.943Z" fill="#C8DAFF"/>
<path d="M393.801 496.943H306.477V584.268H393.801V496.943Z" fill="white"/>
<path d="M175.547 278.699H88.2227V366.024H175.547V278.699Z" fill="white"/>
<path d="M175.547 715.32H88.2227V802.645H175.547V715.32Z" fill="white"/>
<path d="M262.765 409.717H175.441V497.042H262.765V409.717Z" fill="#1E3CFF"/>
<path d="M350.09 322.361H262.766V409.686H350.09V322.361Z" fill="#1E3CFF"/>
<path d="M437.411 235.072H350.086V322.397H437.411V235.072Z" fill="#1E3CFF"/>
<path d="M0.797058 496.943H88.1211L88.1211 409.618H0.797058L0.797058 496.943Z" fill="#1E3CFF"/>
<path d="M-86.5467 409.617H0.777344L0.777344 322.292H-86.5467L-86.5467 409.617Z" fill="#1E3CFF"/>
<path d="M262.765 584.301H175.441V671.626H262.765V584.301Z" fill="#1E3CFF"/>
<path d="M350.09 671.59H262.766V758.915H350.09V671.59Z" fill="#1E3CFF"/>
<path d="M437.411 758.914H350.086V846.239H437.411V758.914Z" fill="#1E3CFF"/>
<path d="M0.797058 671.59H88.1211L88.1211 584.265H0.797058L0.797058 671.59Z" fill="#1E3CFF"/>
<path d="M-86.5467 758.914H0.777344L0.777344 671.589H-86.5467L-86.5467 758.914Z" fill="#1E3CFF"/>
<path d="M699.434 496.939H612.109V584.264H699.434V496.939Z" fill="#C8DAFF"/>
<path d="M481.063 496.939H393.738V584.264H481.063V496.939Z" fill="white"/>
<path d="M699.434 278.701H612.109V366.026H699.434V278.701Z" fill="white"/>
<path d="M699.434 715.318H612.109V802.643H699.434V715.318Z" fill="white"/>
<path d="M786.656 409.719H699.332V497.044H786.656V409.719Z" fill="#1E3CFF"/>
<path d="M524.688 496.939H612.012V409.614H524.688V496.939Z" fill="#1E3CFF"/>
<path d="M437.348 409.617H524.672V322.292H437.348V409.617Z" fill="#1E3CFF"/>
<path d="M350.144 322.295H437.469V234.97H350.144V322.295Z" fill="#1E3CFF"/>
<path d="M786.656 584.297H699.332V671.622H786.656V584.297Z" fill="#1E3CFF"/>
<path d="M524.688 671.588H612.012V584.263H524.688V671.588Z" fill="#1E3CFF"/>
<path d="M437.344 758.887H524.668V671.562H437.344V758.887Z" fill="#1E3CFF"/>
<path d="M350.136 846.211H437.461V758.886H350.136V846.211Z" fill="#1E3CFF"/>
<path d="M175.543 -26.8945H88.2188V60.4305H175.543V-26.8945Z" fill="#C8DAFF"/>
<path d="M393.797 -26.8945H306.473V60.4305H393.797V-26.8945Z" fill="white"/>
<path d="M175.543 191.482H88.2188V278.807H175.543V191.482Z" fill="white"/>
<path d="M262.761 60.4629H175.438V147.788H262.761V60.4629Z" fill="#1E3CFF"/>
<path d="M350.086 147.754H262.762V235.079H350.086V147.754Z" fill="#1E3CFF"/>
<path d="M437.411 235.076H350.086V322.401H437.411V235.076Z" fill="#1E3CFF"/>
<path d="M0.793228 147.754H88.1172L88.1172 60.4289L0.793228 60.4289L0.793228 147.754Z" fill="#1E3CFF"/>
<path d="M-86.5466 235.076H0.777344L0.777344 147.751H-86.5466L-86.5466 235.076Z" fill="#1E3CFF"/>
<path d="M699.434 -26.8945H612.109V60.4305H699.434V-26.8945Z" fill="#C8DAFF"/>
<path d="M481.059 -26.8945H393.734V60.4305H481.059V-26.8945Z" fill="white"/>
<path d="M699.434 191.482H612.109V278.807H699.434V191.482Z" fill="white"/>
<path d="M786.652 60.4629H699.328V147.788H786.652V60.4629Z" fill="#1E3CFF"/>
<path d="M524.684 147.754H612.008V60.4289L524.684 60.4289V147.754Z" fill="#1E3CFF"/>
<path d="M437.344 235.076H524.668V147.751H437.344V235.076Z" fill="#1E3CFF"/>
<path d="M350.136 322.4H437.461V235.075H350.136V322.4Z" fill="#C8DAFF"/>
<path d="M175.543 1020.88H88.2188V1108.21H175.543V1020.88Z" fill="#C8DAFF"/>
<path d="M393.801 1020.88H306.477V1108.21H393.801V1020.88Z" fill="white"/>
<path d="M175.543 802.641H88.2188V889.966H175.543V802.641Z" fill="white"/>
<path d="M262.765 933.658H175.441V1020.98H262.765V933.658Z" fill="#1E3CFF"/>
<path d="M350.086 846.303H262.762V933.628H350.086V846.303Z" fill="#1E3CFF"/>
<path d="M437.411 759.014H350.086V846.339H437.411V759.014Z" fill="#1E3CFF"/>
<path d="M0.793182 1020.88H88.1172L88.1172 933.556H0.793182L0.793182 1020.88Z" fill="#1E3CFF"/>
<path d="M-86.5467 933.557H0.777344L0.777344 846.232H-86.5467L-86.5467 933.557Z" fill="#1E3CFF"/>
<path d="M699.434 1020.88H612.109V1108.2H699.434V1020.88Z" fill="#C8DAFF"/>
<path d="M481.059 1020.88H393.734V1108.2H481.059V1020.88Z" fill="white"/>
<path d="M699.434 802.641H612.109V889.966H699.434V802.641Z" fill="white"/>
<path d="M786.656 933.658H699.332V1020.98H786.656V933.658Z" fill="#1E3CFF"/>
<path d="M524.684 1020.88H612.008V933.554H524.684V1020.88Z" fill="#1E3CFF"/>
<path d="M437.348 933.557H524.672V846.232H437.348V933.557Z" fill="#1E3CFF"/>
<path d="M350.14 846.234H437.465V758.909H350.14V846.234Z" fill="#C8DAFF"/>
</g>
</svg>
