<svg width="787" height="1081" viewBox="0 0 787 1081" fill="none" xmlns="http://www.w3.org/2000/svg">
<mask id="mask0_94_10595" style="mask-type:alpha" maskUnits="userSpaceOnUse" x="0" y="0" width="787" height="1081">
<rect x="0.765625" y="0.636719" width="785.483" height="1080" fill="#0F0F1C"/>
</mask>
<g mask="url(#mask0_94_10595)">
<rect x="-428.594" y="-434.207" width="1657.69" height="1657.69" fill="#1E3CFF"/>
<path d="M175.547 496.975H88.2227V584.3H175.547V496.975Z" fill="#C8DAFF"/>
<path d="M393.801 496.975H306.477V584.3H393.801V496.975Z" fill="#0F0F1C"/>
<path d="M175.547 278.732H88.2227V366.057H175.547V278.732Z" fill="#0F0F1C"/>
<path d="M175.547 715.352H88.2227V802.676H175.547V715.352Z" fill="#0F0F1C"/>
<path d="M262.769 409.75H175.445V497.075H262.769V409.75Z" fill="white"/>
<path d="M350.09 322.393H262.766V409.718H350.09V322.393Z" fill="white"/>
<path d="M437.415 235.105H350.09V322.43H437.415V235.105Z" fill="white"/>
<path d="M0.797058 496.975H88.1211L88.1211 409.65H0.797058L0.797058 496.975Z" fill="white"/>
<path d="M-86.5467 409.648H0.777344L0.777344 322.323H-86.5467L-86.5467 409.648Z" fill="white"/>
<path d="M262.769 584.332H175.445V671.657H262.769V584.332Z" fill="white"/>
<path d="M350.09 671.623H262.766V758.948H350.09V671.623Z" fill="white"/>
<path d="M437.415 758.945H350.09V846.27H437.415V758.945Z" fill="white"/>
<path d="M0.797058 671.623H88.1211L88.1211 584.298H0.797058L0.797058 671.623Z" fill="white"/>
<path d="M-86.5467 758.945H0.777344L0.777344 671.62H-86.5467L-86.5467 758.945Z" fill="white"/>
<path d="M699.438 496.973H612.113V584.298H699.438V496.973Z" fill="#C8DAFF"/>
<path d="M481.063 496.973H393.738V584.298H481.063V496.973Z" fill="#0F0F1C"/>
<path d="M699.438 278.732H612.113V366.057H699.438V278.732Z" fill="#0F0F1C"/>
<path d="M699.438 715.35H612.113V802.675H699.438V715.35Z" fill="#0F0F1C"/>
<path d="M786.656 409.752H699.332V497.077H786.656V409.752Z" fill="white"/>
<path d="M524.688 496.973H612.012V409.648H524.688V496.973Z" fill="white"/>
<path d="M437.348 409.65H524.672V322.325H437.348V409.65Z" fill="white"/>
<path d="M350.144 322.328H437.469V235.003H350.144V322.328Z" fill="white"/>
<path d="M786.656 584.33H699.332V671.655H786.656V584.33Z" fill="white"/>
<path d="M524.688 671.621H612.012V584.296H524.688V671.621Z" fill="white"/>
<path d="M437.344 758.918H524.668V671.593H437.344V758.918Z" fill="white"/>
<path d="M350.136 846.242H437.461V758.917H350.136V846.242Z" fill="white"/>
<path d="M175.543 -26.8633H88.2188V60.4618H175.543V-26.8633Z" fill="#C8DAFF"/>
<path d="M393.797 -26.8633H306.473V60.4618H393.797V-26.8633Z" fill="#0F0F1C"/>
<path d="M175.543 191.516H88.2188V278.841H175.543V191.516Z" fill="#0F0F1C"/>
<path d="M262.765 60.4961H175.441V147.821H262.765V60.4961Z" fill="white"/>
<path d="M350.086 147.785H262.762V235.11H350.086V147.785Z" fill="white"/>
<path d="M437.411 235.109H350.086V322.434H437.411V235.109Z" fill="white"/>
<path d="M0.793228 147.785H88.1172L88.1172 60.4602L0.793228 60.4602L0.793228 147.785Z" fill="white"/>
<path d="M-86.5466 235.109H0.777344L0.777344 147.784H-86.5466L-86.5466 235.109Z" fill="white"/>
<path d="M699.434 -26.8633H612.109V60.4618H699.434V-26.8633Z" fill="#C8DAFF"/>
<path d="M481.059 -26.8633H393.734V60.4618H481.059V-26.8633Z" fill="#0F0F1C"/>
<path d="M699.434 191.516H612.109V278.841H699.434V191.516Z" fill="#0F0F1C"/>
<path d="M786.652 60.4961H699.328V147.821H786.652V60.4961Z" fill="white"/>
<path d="M524.684 147.785H612.008V60.4602L524.684 60.4602V147.785Z" fill="white"/>
<path d="M437.344 235.109H524.668V147.784H437.344V235.109Z" fill="white"/>
<path d="M350.136 322.432H437.461V235.107H350.136V322.432Z" fill="#C8DAFF"/>
<path d="M175.543 1020.91H88.2188V1108.24H175.543V1020.91Z" fill="#C8DAFF"/>
<path d="M393.801 1020.91H306.477V1108.24H393.801V1020.91Z" fill="#0F0F1C"/>
<path d="M175.543 802.672H88.2188V889.997H175.543V802.672Z" fill="#0F0F1C"/>
<path d="M262.765 933.691H175.441V1021.02H262.765V933.691Z" fill="white"/>
<path d="M350.086 846.334H262.762V933.659H350.086V846.334Z" fill="white"/>
<path d="M437.411 759.047H350.086V846.372H437.411V759.047Z" fill="white"/>
<path d="M0.793182 1020.91H88.1172L88.1172 933.587H0.793182L0.793182 1020.91Z" fill="white"/>
<path d="M-86.5428 933.59H0.78125L0.78125 846.265H-86.5428L-86.5428 933.59Z" fill="white"/>
<path d="M699.434 1020.91H612.109V1108.24H699.434V1020.91Z" fill="#C8DAFF"/>
<path d="M481.059 1020.91H393.734V1108.24H481.059V1020.91Z" fill="#0F0F1C"/>
<path d="M699.434 802.672H612.109V889.997H699.434V802.672Z" fill="#0F0F1C"/>
<path d="M786.656 933.691H699.332V1021.02H786.656V933.691Z" fill="white"/>
<path d="M524.684 1020.91H612.008V933.585H524.684V1020.91Z" fill="white"/>
<path d="M437.348 933.59H524.672V846.265H437.348V933.59Z" fill="white"/>
<path d="M350.14 846.266H437.465V758.941H350.14V846.266Z" fill="#C8DAFF"/>
</g>
</svg>
