<svg width="1920" height="1080" viewBox="0 0 1920 1080" fill="none" xmlns="http://www.w3.org/2000/svg">
<g clip-path="url(#clip0_11050_6)">
<rect width="1920" height="1080" fill="white"/>
<g style="mix-blend-mode:multiply" opacity="0.3">
<path d="M1920.27 556.253H1885.36V591.167H1920.27V556.253Z" fill="#ECECEC"/>
<path d="M1885.91 591H1851V625.915H1885.91V591Z" fill="#ECECEC"/>
<path d="M1675.87 556.252H1640.95V591.167H1675.87V556.252Z" fill="#ECECEC"/>
<path d="M1710.91 591H1676V625.915H1710.91V591Z" fill="#ECECEC"/>
<path d="M1536.22 556.252H1501.3V591.167H1536.22V556.252Z" fill="#ECECEC"/>
<path d="M1431.47 556.253H1396.56V591.167H1431.47V556.253Z" fill="#ECECEC"/>
<path d="M1361.64 556.253H1326.73V591.167H1361.64V556.253Z" fill="#ECECEC"/>
<path d="M1291.82 556.253H1256.9V591.167H1291.82V556.253Z" fill="#ECECEC"/>
<path d="M1256.9 556.253H1221.98V591.167H1256.9V556.253Z" fill="#ECECEC"/>
<path d="M942.68 556.253H907.765V591.167H942.68V556.253Z" fill="#ECECEC"/>
<path d="M837.934 556.252H803.02V591.167H837.934V556.252Z" fill="#ECECEC"/>
<path d="M733.19 556.253H698.275V591.167H733.19V556.253Z" fill="#ECECEC"/>
<path d="M663.371 556.253H628.456V591.167H663.371V556.253Z" fill="#ECECEC"/>
<path d="M697.915 591H663V625.915H697.915V591Z" fill="#ECECEC"/>
<path d="M523.712 556.252H488.797V591.167H523.712V556.252Z" fill="#ECECEC"/>
<path d="M453.882 556.252H418.967V591.167H453.882V556.252Z" fill="#ECECEC"/>
<path d="M314.221 556.252H279.306V591.167H314.221V556.252Z" fill="#ECECEC"/>
<path d="M279.915 591H245V625.915H279.915V591Z" fill="#ECECEC"/>
<path d="M174.573 556.253H139.658V591.167H174.573V556.253Z" fill="#ECECEC"/>
<path d="M174.573 591H139.658V625.915H174.573V591Z" fill="#ECECEC"/>
<path d="M104.745 556.252H69.8301V591.167H104.745V556.252Z" fill="#ECECEC"/>
<path d="M34.9149 556.253H0L0 591.167H34.9149V556.253Z" fill="#ECECEC"/>
<path d="M1920.27 521.337H1885.36V556.252H1920.27V521.337Z" fill="#ECECEC"/>
<path d="M1885.36 521.337H1850.44V556.252H1885.36V521.337Z" fill="#ECECEC"/>
<path d="M1745.7 521.337H1710.78V556.252H1745.7V521.337Z" fill="#ECECEC"/>
<path d="M1710.78 521.337H1675.87V556.252H1710.78V521.337Z" fill="#ECECEC"/>
<path d="M1675.87 521.338H1640.95V556.252H1675.87V521.338Z" fill="#ECECEC"/>
<path d="M1640.95 521.337H1606.04V556.252H1640.95V521.337Z" fill="#ECECEC"/>
<path d="M1606.05 521.337H1571.13V556.252H1606.05V521.337Z" fill="#ECECEC"/>
<path d="M1501.3 521.337H1466.39V556.252H1501.3V521.337Z" fill="#ECECEC"/>
<path d="M1466.39 521.338H1431.47V556.252H1466.39V521.338Z" fill="#ECECEC"/>
<path d="M1431.47 521.337H1396.56V556.252H1431.47V521.337Z" fill="#ECECEC"/>
<path d="M1396.56 521.337H1361.65V556.252H1396.56V521.337Z" fill="#ECECEC"/>
<path d="M1361.64 521.337H1326.73V556.252H1361.64V521.337Z" fill="#ECECEC"/>
<path d="M1326.73 521.337H1291.82V556.252H1326.73V521.337Z" fill="#ECECEC"/>
<path d="M1256.9 521.337H1221.98V556.252H1256.9V521.337Z" fill="#ECECEC"/>
<path d="M1221.99 521.338H1187.07V556.252H1221.99V521.338Z" fill="#ECECEC"/>
<path d="M1187.07 521.337H1152.16V556.252H1187.07V521.337Z" fill="#ECECEC"/>
<path d="M1151.91 556H1117V590.915H1151.91V556Z" fill="#ECECEC"/>
<path d="M1117.25 521.337H1082.34V556.252H1117.25V521.337Z" fill="#ECECEC"/>
<path d="M1082.91 556H1048V590.915H1082.91V556Z" fill="#ECECEC"/>
<path d="M1113.91 591H1079V625.915H1113.91V591Z" fill="#ECECEC"/>
<path d="M1012.91 521H978V555.915H1012.91V521Z" fill="#ECECEC"/>
<path d="M942.68 521.337H907.765V556.252H942.68V521.337Z" fill="#ECECEC"/>
<path d="M907.763 521.338H872.848V556.252H907.763V521.338Z" fill="#ECECEC"/>
<path d="M872.848 521.337H837.934V556.252H872.848V521.337Z" fill="#ECECEC"/>
<path d="M768.104 521.337H733.189V556.252H768.104V521.337Z" fill="#ECECEC"/>
<path d="M628.458 521.337H593.543V556.252H628.458V521.337Z" fill="#ECECEC"/>
<path d="M558.626 521.337H523.711V556.252H558.626V521.337Z" fill="#ECECEC"/>
<path d="M488.796 521.337H453.881V556.252H488.796V521.337Z" fill="#ECECEC"/>
<path d="M349.136 521.337H314.221V556.252H349.136V521.337Z" fill="#ECECEC"/>
<path d="M209.489 521.338H174.574V556.252H209.489V521.338Z" fill="#ECECEC"/>
<path d="M174.573 521.337H139.658V556.252H174.573V521.337Z" fill="#ECECEC"/>
<path d="M34.9149 521.337H0L0 556.252H34.9149V521.337Z" fill="#ECECEC"/>
<path d="M1920.27 486.423H1885.36V521.338H1920.27V486.423Z" fill="#ECECEC"/>
<path d="M1885.36 486.423H1850.44V521.338H1885.36V486.423Z" fill="#ECECEC"/>
<path d="M1850.44 486.423H1815.53V521.338H1850.44V486.423Z" fill="#ECECEC"/>
<path d="M1815.53 486.423H1780.61V521.338H1815.53V486.423Z" fill="#ECECEC"/>
<path d="M1780.61 486.423H1745.7V521.338H1780.61V486.423Z" fill="#ECECEC"/>
<path d="M1710.78 486.423H1675.87V521.338H1710.78V486.423Z" fill="#ECECEC"/>
<path d="M1606.05 486.423H1571.13V521.338H1606.05V486.423Z" fill="#ECECEC"/>
<path d="M1571.14 486.423H1536.22V521.338H1571.14V486.423Z" fill="#ECECEC"/>
<path d="M1501.3 486.423H1466.39V521.338H1501.3V486.423Z" fill="#ECECEC"/>
<path d="M1466.39 486.423H1431.47V521.338H1466.39V486.423Z" fill="#ECECEC"/>
<path d="M1431.47 486.423H1396.56V521.338H1431.47V486.423Z" fill="#ECECEC"/>
<path d="M1396.56 486.423H1361.65V521.338H1396.56V486.423Z" fill="#ECECEC"/>
<path d="M1361.64 486.423H1326.73V521.338H1361.64V486.423Z" fill="#ECECEC"/>
<path d="M1291.82 486.423H1256.9V521.338H1291.82V486.423Z" fill="#ECECEC"/>
<path d="M1221.99 486.423H1187.07V521.338H1221.99V486.423Z" fill="#ECECEC"/>
<path d="M1152.17 486.423H1117.25V521.338H1152.17V486.423Z" fill="#ECECEC"/>
<path d="M1082.34 486.423H1047.42V521.338H1082.34V486.423Z" fill="#ECECEC"/>
<path d="M1012.91 486.423H978V521.338H1012.91V486.423Z" fill="#ECECEC"/>
<path d="M942.68 486.423H907.765V521.338H942.68V486.423Z" fill="#ECECEC"/>
<path d="M872.848 486.423H837.934V521.338H872.848V486.423Z" fill="#ECECEC"/>
<path d="M803.018 486.423H768.104V521.338H803.018V486.423Z" fill="#ECECEC"/>
<path d="M733.19 486.423H698.275V521.338H733.19V486.423Z" fill="#ECECEC"/>
<path d="M698.286 486.423H663.371V521.338H698.286V486.423Z" fill="#ECECEC"/>
<path d="M663.371 486.423H628.456V521.338H663.371V486.423Z" fill="#ECECEC"/>
<path d="M628.458 486.423H593.543V521.338H628.458V486.423Z" fill="#ECECEC"/>
<path d="M593.541 486.423H558.626V521.338H593.541V486.423Z" fill="#ECECEC"/>
<path d="M523.712 486.423H488.797V521.338H523.712V486.423Z" fill="#ECECEC"/>
<path d="M453.883 486.423H418.968V521.338H453.883V486.423Z" fill="#ECECEC"/>
<path d="M384.054 486.423H349.139V521.338H384.054V486.423Z" fill="#ECECEC"/>
<path d="M314.222 486.423H279.307V521.338H314.222V486.423Z" fill="#ECECEC"/>
<path d="M244.404 486.423H209.489V521.338H244.404V486.423Z" fill="#ECECEC"/>
<path d="M174.573 486.423H139.658V521.338H174.573V486.423Z" fill="#ECECEC"/>
<path d="M1885.36 451.507H1850.44V486.422H1885.36V451.507Z" fill="#ECECEC"/>
<path d="M1815.53 451.507H1780.61V486.422H1815.53V451.507Z" fill="#ECECEC"/>
<path d="M1745.7 451.507H1710.78V486.422H1745.7V451.507Z" fill="#ECECEC"/>
<path d="M1710.78 451.507H1675.87V486.422H1710.78V451.507Z" fill="#ECECEC"/>
<path d="M1675.87 451.507H1640.95V486.422H1675.87V451.507Z" fill="#ECECEC"/>
<path d="M1606.05 451.507H1571.13V486.422H1606.05V451.507Z" fill="#ECECEC"/>
<path d="M1571.13 451.507H1536.22V486.422H1571.13V451.507Z" fill="#ECECEC"/>
<path d="M1536.22 451.507H1501.3V486.422H1536.22V451.507Z" fill="#ECECEC"/>
<path d="M1501.3 451.507H1466.39V486.422H1501.3V451.507Z" fill="#ECECEC"/>
<path d="M1466.39 451.507H1431.47V486.422H1466.39V451.507Z" fill="#ECECEC"/>
<path d="M1431.47 451.507H1396.56V486.422H1431.47V451.507Z" fill="#ECECEC"/>
<path d="M1396.56 451.507H1361.64V486.422H1396.56V451.507Z" fill="#ECECEC"/>
<path d="M1291.82 451.508H1256.9V486.423H1291.82V451.508Z" fill="#ECECEC"/>
<path d="M1256.9 451.508H1221.98V486.423H1256.9V451.508Z" fill="#ECECEC"/>
<path d="M1187.07 451.507H1152.16V486.422H1187.07V451.507Z" fill="#ECECEC"/>
<path d="M1152.17 451.507H1117.25V486.422H1152.17V451.507Z" fill="#ECECEC"/>
<path d="M1117.25 451.507H1082.34V486.422H1117.25V451.507Z" fill="#ECECEC"/>
<path d="M1082.34 451.507H1047.42V486.422H1082.34V451.507Z" fill="#ECECEC"/>
<path d="M1047.42 451.507H1012.51V486.422H1047.42V451.507Z" fill="#ECECEC"/>
<path d="M1012.51 451.507H977.594V486.422H1012.51V451.507Z" fill="#ECECEC"/>
<path d="M977.593 451.507H942.678V486.422H977.593V451.507Z" fill="#ECECEC"/>
<path d="M907.763 451.507H872.848V486.422H907.763V451.507Z" fill="#ECECEC"/>
<path d="M872.847 451.507H837.933V486.422H872.847V451.507Z" fill="#ECECEC"/>
<path d="M837.934 451.507H803.02V486.422H837.934V451.507Z" fill="#ECECEC"/>
<path d="M768.104 451.507H733.189V486.422H768.104V451.507Z" fill="#ECECEC"/>
<path d="M698.286 451.507H663.371V486.422H698.286V451.507Z" fill="#ECECEC"/>
<path d="M663.371 451.508H628.456V486.423H663.371V451.508Z" fill="#ECECEC"/>
<path d="M628.457 451.507H593.542V486.422H628.457V451.507Z" fill="#ECECEC"/>
<path d="M593.541 451.507H558.626V486.422H593.541V451.507Z" fill="#ECECEC"/>
<path d="M488.796 451.507H453.881V486.422H488.796V451.507Z" fill="#ECECEC"/>
<path d="M453.882 451.507H418.967V486.422H453.882V451.507Z" fill="#ECECEC"/>
<path d="M418.967 451.507H384.052V486.422H418.967V451.507Z" fill="#ECECEC"/>
<path d="M279.306 451.507H244.392V486.422H279.306V451.507Z" fill="#ECECEC"/>
<path d="M139.659 451.507H104.744V486.422H139.659V451.507Z" fill="#ECECEC"/>
<path d="M1920.27 416.591H1885.36V451.506H1920.27V416.591Z" fill="#ECECEC"/>
<path d="M1850.44 416.591H1815.53V451.506H1850.44V416.591Z" fill="#ECECEC"/>
<path d="M1815.53 416.592H1780.61V451.507H1815.53V416.592Z" fill="#ECECEC"/>
<path d="M1780.61 416.591H1745.7V451.506H1780.61V416.591Z" fill="#ECECEC"/>
<path d="M1710.78 416.591H1675.87V451.506H1710.78V416.591Z" fill="#ECECEC"/>
<path d="M1640.95 416.592H1606.04V451.507H1640.95V416.592Z" fill="#ECECEC"/>
<path d="M1571.14 416.592H1536.22V451.507H1571.14V416.592Z" fill="#ECECEC"/>
<path d="M1501.3 416.591H1466.39V451.506H1501.3V416.591Z" fill="#ECECEC"/>
<path d="M1431.47 416.592H1396.56V451.507H1431.47V416.592Z" fill="#ECECEC"/>
<path d="M1361.64 416.592H1326.73V451.507H1361.64V416.592Z" fill="#ECECEC"/>
<path d="M1291.82 416.592H1256.9V451.507H1291.82V416.592Z" fill="#ECECEC"/>
<path d="M1221.99 416.591H1187.07V451.506H1221.99V416.591Z" fill="#ECECEC"/>
<path d="M1152.17 416.592H1117.25V451.507H1152.17V416.592Z" fill="#ECECEC"/>
<path d="M1082.34 416.591H1047.42V451.506H1082.34V416.591Z" fill="#ECECEC"/>
<path d="M1012.51 416.591H977.594V451.506H1012.51V416.591Z" fill="#ECECEC"/>
<path d="M977.593 416.591H942.678V451.506H977.593V416.591Z" fill="#ECECEC"/>
<path d="M942.68 416.592H907.765V451.507H942.68V416.592Z" fill="#ECECEC"/>
<path d="M872.847 416.591H837.933V451.506H872.847V416.591Z" fill="#ECECEC"/>
<path d="M803.018 416.592H768.104V451.507H803.018V416.592Z" fill="#ECECEC"/>
<path d="M733.19 416.592H698.275V451.507H733.19V416.592Z" fill="#ECECEC"/>
<path d="M663.371 416.592H628.456V451.507H663.371V416.592Z" fill="#ECECEC"/>
<path d="M593.541 416.591H558.626V451.506H593.541V416.591Z" fill="#ECECEC"/>
<path d="M523.712 416.591H488.797V451.506H523.712V416.591Z" fill="#ECECEC"/>
<path d="M453.882 416.591H418.967V451.506H453.882V416.591Z" fill="#ECECEC"/>
<path d="M384.054 416.591H349.139V451.506H384.054V416.591Z" fill="#ECECEC"/>
<path d="M314.222 416.592H279.307V451.507H314.222V416.592Z" fill="#ECECEC"/>
<path d="M244.403 416.591H209.488V451.506H244.403V416.591Z" fill="#ECECEC"/>
<path d="M174.573 416.592H139.658V451.507H174.573V416.592Z" fill="#ECECEC"/>
<path d="M1885.36 381.678H1850.44V416.593H1885.36V381.678Z" fill="#ECECEC"/>
<path d="M1850.44 381.677H1815.53V416.592H1850.44V381.677Z" fill="#ECECEC"/>
<path d="M1815.53 381.677H1780.61V416.592H1815.53V381.677Z" fill="#ECECEC"/>
<path d="M1780.61 381.677H1745.7V416.592H1780.61V381.677Z" fill="#ECECEC"/>
<path d="M1745.7 381.677H1710.78V416.592H1745.7V381.677Z" fill="#ECECEC"/>
<path d="M1710.78 381.677H1675.87V416.592H1710.78V381.677Z" fill="#ECECEC"/>
<path d="M1675.87 381.677H1640.95V416.592H1675.87V381.677Z" fill="#ECECEC"/>
<path d="M1640.95 381.678H1606.04V416.593H1640.95V381.678Z" fill="#ECECEC"/>
<path d="M1606.05 381.677H1571.13V416.592H1606.05V381.677Z" fill="#ECECEC"/>
<path d="M1536.22 381.677H1501.3V416.592H1536.22V381.677Z" fill="#ECECEC"/>
<path d="M1501.3 381.677H1466.39V416.592H1501.3V381.677Z" fill="#ECECEC"/>
<path d="M1466.39 381.677H1431.47V416.592H1466.39V381.677Z" fill="#ECECEC"/>
<path d="M1431.47 381.677H1396.56V416.592H1431.47V381.677Z" fill="#ECECEC"/>
<path d="M1396.56 381.677H1361.64V416.592H1396.56V381.677Z" fill="#ECECEC"/>
<path d="M1326.73 381.677H1291.82V416.592H1326.73V381.677Z" fill="#ECECEC"/>
<path d="M1291.82 381.677H1256.9V416.592H1291.82V381.677Z" fill="#ECECEC"/>
<path d="M1256.9 381.677H1221.98V416.592H1256.9V381.677Z" fill="#ECECEC"/>
<path d="M1187.07 381.677H1152.16V416.592H1187.07V381.677Z" fill="#ECECEC"/>
<path d="M1152.17 381.677H1117.25V416.592H1152.17V381.677Z" fill="#ECECEC"/>
<path d="M1117.25 381.677H1082.34V416.592H1117.25V381.677Z" fill="#ECECEC"/>
<path d="M1082.34 381.677H1047.42V416.592H1082.34V381.677Z" fill="#ECECEC"/>
<path d="M1047.42 381.677H1012.51V416.592H1047.42V381.677Z" fill="#ECECEC"/>
<path d="M977.593 381.677H942.678V416.592H977.593V381.677Z" fill="#ECECEC"/>
<path d="M942.679 381.677H907.764V416.592H942.679V381.677Z" fill="#ECECEC"/>
<path d="M907.763 381.677H872.848V416.592H907.763V381.677Z" fill="#ECECEC"/>
<path d="M872.847 381.677H837.933V416.592H872.847V381.677Z" fill="#ECECEC"/>
<path d="M837.934 381.677H803.02V416.592H837.934V381.677Z" fill="#ECECEC"/>
<path d="M768.104 381.677H733.189V416.592H768.104V381.677Z" fill="#ECECEC"/>
<path d="M733.189 381.677H698.274V416.592H733.189V381.677Z" fill="#ECECEC"/>
<path d="M698.286 381.677H663.371V416.592H698.286V381.677Z" fill="#ECECEC"/>
<path d="M628.457 381.677H593.542V416.592H628.457V381.677Z" fill="#ECECEC"/>
<path d="M558.626 381.677H523.711V416.592H558.626V381.677Z" fill="#ECECEC"/>
<path d="M523.712 381.677H488.797V416.592H523.712V381.677Z" fill="#ECECEC"/>
<path d="M488.796 381.677H453.881V416.592H488.796V381.677Z" fill="#ECECEC"/>
<path d="M349.137 381.677H314.222V416.592H349.137V381.677Z" fill="#ECECEC"/>
<path d="M279.306 381.677H244.392V416.592H279.306V381.677Z" fill="#ECECEC"/>
<path d="M1920.27 346.763H1885.36V381.678H1920.27V346.763Z" fill="#ECECEC"/>
<path d="M1885.36 346.763H1850.44V381.678H1885.36V346.763Z" fill="#ECECEC"/>
<path d="M1850.44 346.763H1815.53V381.678H1850.44V346.763Z" fill="#ECECEC"/>
<path d="M1780.61 346.763H1745.7V381.678H1780.61V346.763Z" fill="#ECECEC"/>
<path d="M1710.78 346.763H1675.87V381.678H1710.78V346.763Z" fill="#ECECEC"/>
<path d="M1675.87 346.763H1640.95V381.678H1675.87V346.763Z" fill="#ECECEC"/>
<path d="M1640.95 346.763H1606.04V381.678H1640.95V346.763Z" fill="#ECECEC"/>
<path d="M1606.05 346.763H1571.13V381.678H1606.05V346.763Z" fill="#ECECEC"/>
<path d="M1536.22 346.763H1501.3V381.678H1536.22V346.763Z" fill="#ECECEC"/>
<path d="M1501.3 346.763H1466.39V381.678H1501.3V346.763Z" fill="#ECECEC"/>
<path d="M1431.47 346.763H1396.56V381.678H1431.47V346.763Z" fill="#ECECEC"/>
<path d="M1361.64 346.763H1326.73V381.678H1361.64V346.763Z" fill="#ECECEC"/>
<path d="M1326.73 346.763H1291.82V381.678H1326.73V346.763Z" fill="#ECECEC"/>
<path d="M1291.82 346.763H1256.9V381.678H1291.82V346.763Z" fill="#ECECEC"/>
<path d="M1256.9 346.763H1221.98V381.678H1256.9V346.763Z" fill="#ECECEC"/>
<path d="M1221.99 346.763H1187.07V381.678H1221.99V346.763Z" fill="#ECECEC"/>
<path d="M1187.07 346.763H1152.16V381.678H1187.07V346.763Z" fill="#ECECEC"/>
<path d="M1152.17 346.763H1117.25V381.678H1152.17V346.763Z" fill="#ECECEC"/>
<path d="M1082.34 346.763H1047.42V381.678H1082.34V346.763Z" fill="#ECECEC"/>
<path d="M1012.51 346.763H977.594V381.678H1012.51V346.763Z" fill="#ECECEC"/>
<path d="M942.68 346.763H907.765V381.678H942.68V346.763Z" fill="#ECECEC"/>
<path d="M872.847 346.763H837.933V381.678H872.847V346.763Z" fill="#ECECEC"/>
<path d="M768.104 346.763H733.189V381.678H768.104V346.763Z" fill="#ECECEC"/>
<path d="M733.19 346.763H698.275V381.678H733.19V346.763Z" fill="#ECECEC"/>
<path d="M663.371 346.763H628.456V381.678H663.371V346.763Z" fill="#ECECEC"/>
<path d="M628.458 346.763H593.543V381.678H628.458V346.763Z" fill="#ECECEC"/>
<path d="M593.541 346.763H558.626V381.678H593.541V346.763Z" fill="#ECECEC"/>
<path d="M523.712 346.763H488.797V381.678H523.712V346.763Z" fill="#ECECEC"/>
<path d="M453.882 346.763H418.967V381.678H453.882V346.763Z" fill="#ECECEC"/>
<path d="M314.221 346.763H279.306V381.678H314.221V346.763Z" fill="#ECECEC"/>
<path d="M244.403 346.763H209.488V381.678H244.403V346.763Z" fill="#ECECEC"/>
<path d="M174.573 346.763H139.658V381.678H174.573V346.763Z" fill="#ECECEC"/>
<path d="M34.9149 346.763H0L0 381.678H34.9149V346.763Z" fill="#ECECEC"/>
<path d="M1920.27 311.848H1885.36V346.763H1920.27V311.848Z" fill="#ECECEC"/>
<path d="M1885.36 311.848H1850.44V346.763H1885.36V311.848Z" fill="#ECECEC"/>
<path d="M1850.44 311.848H1815.53V346.763H1850.44V311.848Z" fill="#ECECEC"/>
<path d="M1815.53 311.85H1780.61V346.765H1815.53V311.85Z" fill="#ECECEC"/>
<path d="M1780.61 311.85H1745.7V346.765H1780.61V311.85Z" fill="#ECECEC"/>
<path d="M1745.7 311.85H1710.78V346.765H1745.7V311.85Z" fill="#ECECEC"/>
<path d="M1710.78 311.85H1675.87V346.765H1710.78V311.85Z" fill="#ECECEC"/>
<path d="M1675.87 311.85H1640.95V346.765H1675.87V311.85Z" fill="#ECECEC"/>
<path d="M1606.05 311.849H1571.13V346.764H1606.05V311.849Z" fill="#ECECEC"/>
<path d="M1571.14 311.849H1536.22V346.764H1571.14V311.849Z" fill="#ECECEC"/>
<path d="M1536.22 311.85H1501.3V346.765H1536.22V311.85Z" fill="#ECECEC"/>
<path d="M1501.3 311.85H1466.39V346.765H1501.3V311.85Z" fill="#ECECEC"/>
<path d="M1431.47 311.849H1396.56V346.764H1431.47V311.849Z" fill="#ECECEC"/>
<path d="M1396.56 311.85H1361.64V346.765H1396.56V311.85Z" fill="#ECECEC"/>
<path d="M1361.64 311.849H1326.73V346.764H1361.64V311.849Z" fill="#ECECEC"/>
<path d="M1326.73 311.85H1291.82V346.765H1326.73V311.85Z" fill="#ECECEC"/>
<path d="M1256.9 311.849H1221.98V346.764H1256.9V311.849Z" fill="#ECECEC"/>
<path d="M1221.99 311.85H1187.07V346.765H1221.99V311.85Z" fill="#ECECEC"/>
<path d="M1187.07 311.849H1152.16V346.764H1187.07V311.849Z" fill="#ECECEC"/>
<path d="M1152.17 311.849H1117.25V346.764H1152.17V311.849Z" fill="#ECECEC"/>
<path d="M1117.25 311.849H1082.34V346.764H1117.25V311.849Z" fill="#ECECEC"/>
<path d="M1082.34 311.85H1047.42V346.765H1082.34V311.85Z" fill="#ECECEC"/>
<path d="M1047.42 311.849H1012.51V346.764H1047.42V311.849Z" fill="#ECECEC"/>
<path d="M977.593 311.85H942.678V346.765H977.593V311.85Z" fill="#ECECEC"/>
<path d="M907.763 311.85H872.848V346.765H907.763V311.85Z" fill="#ECECEC"/>
<path d="M837.934 311.85H803.02V346.765H837.934V311.85Z" fill="#ECECEC"/>
<path d="M768.104 311.85H733.189V346.765H768.104V311.85Z" fill="#ECECEC"/>
<path d="M593.541 311.848H558.626V346.763H593.541V311.848Z" fill="#ECECEC"/>
<path d="M558.626 311.848H523.711V346.763H558.626V311.848Z" fill="#ECECEC"/>
<path d="M523.712 311.848H488.797V346.763H523.712V311.848Z" fill="#ECECEC"/>
<path d="M418.968 311.848H384.053V346.763H418.968V311.848Z" fill="#ECECEC"/>
<path d="M279.306 311.848H244.392V346.763H279.306V311.848Z" fill="#ECECEC"/>
<path d="M1920.27 276.933H1885.36V311.848H1920.27V276.933Z" fill="#ECECEC"/>
<path d="M1850.44 276.933H1815.53V311.848H1850.44V276.933Z" fill="#ECECEC"/>
<path d="M1815.53 276.933H1780.61V311.848H1815.53V276.933Z" fill="#ECECEC"/>
<path d="M1780.61 276.933H1745.7V311.848H1780.61V276.933Z" fill="#ECECEC"/>
<path d="M1710.78 276.933H1675.87V311.848H1710.78V276.933Z" fill="#ECECEC"/>
<path d="M1675.87 276.933H1640.95V311.848H1675.87V276.933Z" fill="#ECECEC"/>
<path d="M1640.95 276.933H1606.04V311.848H1640.95V276.933Z" fill="#ECECEC"/>
<path d="M1571.14 276.933H1536.22V311.848H1571.14V276.933Z" fill="#ECECEC"/>
<path d="M1501.3 276.933H1466.39V311.848H1501.3V276.933Z" fill="#ECECEC"/>
<path d="M1431.47 276.933H1396.56V311.848H1431.47V276.933Z" fill="#ECECEC"/>
<path d="M1396.56 276.933H1361.65V311.848H1396.56V276.933Z" fill="#ECECEC"/>
<path d="M1361.64 276.933H1326.73V311.848H1361.64V276.933Z" fill="#ECECEC"/>
<path d="M1291.82 276.933H1256.9V311.848H1291.82V276.933Z" fill="#ECECEC"/>
<path d="M1256.9 276.933H1221.98V311.848H1256.9V276.933Z" fill="#ECECEC"/>
<path d="M1221.99 276.933H1187.07V311.848H1221.99V276.933Z" fill="#ECECEC"/>
<path d="M1152.17 276.933H1117.25V311.848H1152.17V276.933Z" fill="#ECECEC"/>
<path d="M1082.34 276.933H1047.42V311.848H1082.34V276.933Z" fill="#ECECEC"/>
<path d="M1012.51 276.933H977.594V311.848H1012.51V276.933Z" fill="#ECECEC"/>
<path d="M942.68 276.933H907.765V311.848H942.68V276.933Z" fill="#ECECEC"/>
<path d="M872.848 276.933H837.934V311.848H872.848V276.933Z" fill="#ECECEC"/>
<path d="M803.018 276.933H768.104V311.848H803.018V276.933Z" fill="#ECECEC"/>
<path d="M733.19 276.933H698.275V311.848H733.19V276.933Z" fill="#ECECEC"/>
<path d="M663.371 276.933H628.456V311.848H663.371V276.933Z" fill="#ECECEC"/>
<path d="M523.712 276.933H488.797V311.848H523.712V276.933Z" fill="#ECECEC"/>
<path d="M453.883 276.933H418.968V311.848H453.883V276.933Z" fill="#ECECEC"/>
<path d="M384.054 276.933H349.139V311.848H384.054V276.933Z" fill="#ECECEC"/>
<path d="M1885.36 242.018H1850.44V276.933H1885.36V242.018Z" fill="#ECECEC"/>
<path d="M1815.53 242.018H1780.61V276.933H1815.53V242.018Z" fill="#ECECEC"/>
<path d="M1780.61 242.018H1745.7V276.933H1780.61V242.018Z" fill="#ECECEC"/>
<path d="M1745.7 242.018H1710.78V276.933H1745.7V242.018Z" fill="#ECECEC"/>
<path d="M1710.78 242.019H1675.87V276.934H1710.78V242.019Z" fill="#ECECEC"/>
<path d="M1675.87 242.018H1640.95V276.933H1675.87V242.018Z" fill="#ECECEC"/>
<path d="M1640.95 242.018H1606.04V276.933H1640.95V242.018Z" fill="#ECECEC"/>
<path d="M1606.05 242.018H1571.13V276.933H1606.05V242.018Z" fill="#ECECEC"/>
<path d="M1571.14 242.018H1536.22V276.933H1571.14V242.018Z" fill="#ECECEC"/>
<path d="M1536.22 242.019H1501.3V276.934H1536.22V242.019Z" fill="#ECECEC"/>
<path d="M1501.3 242.018H1466.39V276.933H1501.3V242.018Z" fill="#ECECEC"/>
<path d="M1466.39 242.018H1431.47V276.933H1466.39V242.018Z" fill="#ECECEC"/>
<path d="M1431.47 242.018H1396.56V276.933H1431.47V242.018Z" fill="#ECECEC"/>
<path d="M1396.56 242.018H1361.65V276.933H1396.56V242.018Z" fill="#ECECEC"/>
<path d="M1361.64 242.018H1326.73V276.933H1361.64V242.018Z" fill="#ECECEC"/>
<path d="M1326.73 242.018H1291.82V276.933H1326.73V242.018Z" fill="#ECECEC"/>
<path d="M1291.82 242.018H1256.9V276.933H1291.82V242.018Z" fill="#ECECEC"/>
<path d="M1256.9 242.018H1221.98V276.933H1256.9V242.018Z" fill="#ECECEC"/>
<path d="M1187.07 242.018H1152.16V276.933H1187.07V242.018Z" fill="#ECECEC"/>
<path d="M1117.25 242.018H1082.34V276.933H1117.25V242.018Z" fill="#ECECEC"/>
<path d="M1082.34 242.018H1047.42V276.933H1082.34V242.018Z" fill="#ECECEC"/>
<path d="M1047.42 242.018H1012.51V276.933H1047.42V242.018Z" fill="#ECECEC"/>
<path d="M1012.51 242.018H977.594V276.933H1012.51V242.018Z" fill="#ECECEC"/>
<path d="M907.763 242.019H872.848V276.934H907.763V242.019Z" fill="#ECECEC"/>
<path d="M872.848 242.018H837.934V276.933H872.848V242.018Z" fill="#ECECEC"/>
<path d="M837.934 242.019H803.02V276.934H837.934V242.019Z" fill="#ECECEC"/>
<path d="M803.018 242.018H768.104V276.933H803.018V242.018Z" fill="#ECECEC"/>
<path d="M768.104 242.018H733.189V276.933H768.104V242.018Z" fill="#ECECEC"/>
<path d="M733.19 242.018H698.275V276.933H733.19V242.018Z" fill="#ECECEC"/>
<path d="M628.458 242.018H593.543V276.933H628.458V242.018Z" fill="#ECECEC"/>
<path d="M558.626 242.018H523.711V276.933H558.626V242.018Z" fill="#ECECEC"/>
<path d="M488.796 242.018H453.881V276.933H488.796V242.018Z" fill="#ECECEC"/>
<path d="M1920.27 207.103H1885.36V242.018H1920.27V207.103Z" fill="#ECECEC"/>
<path d="M1850.44 207.104H1815.53V242.019H1850.44V207.104Z" fill="#ECECEC"/>
<path d="M1815.53 207.104H1780.61V242.019H1815.53V207.104Z" fill="#ECECEC"/>
<path d="M1780.61 207.103H1745.7V242.018H1780.61V207.103Z" fill="#ECECEC"/>
<path d="M1710.78 207.104H1675.87V242.019H1710.78V207.104Z" fill="#ECECEC"/>
<path d="M1675.87 207.104H1640.95V242.019H1675.87V207.104Z" fill="#ECECEC"/>
<path d="M1571.14 207.104H1536.22V242.019H1571.14V207.104Z" fill="#ECECEC"/>
<path d="M1501.3 207.104H1466.39V242.019H1501.3V207.104Z" fill="#ECECEC"/>
<path d="M1466.39 207.104H1431.47V242.019H1466.39V207.104Z" fill="#ECECEC"/>
<path d="M1431.47 207.103H1396.56V242.018H1431.47V207.103Z" fill="#ECECEC"/>
<path d="M1361.64 207.103H1326.73V242.018H1361.64V207.103Z" fill="#ECECEC"/>
<path d="M1326.73 207.103H1291.82V242.018H1326.73V207.103Z" fill="#ECECEC"/>
<path d="M1291.82 207.103H1256.9V242.018H1291.82V207.103Z" fill="#ECECEC"/>
<path d="M1221.99 207.104H1187.07V242.019H1221.99V207.104Z" fill="#ECECEC"/>
<path d="M1187.07 207.103H1152.16V242.018H1187.07V207.103Z" fill="#ECECEC"/>
<path d="M1152.17 207.103H1117.25V242.018H1152.17V207.103Z" fill="#ECECEC"/>
<path d="M1082.34 207.103H1047.42V242.018H1082.34V207.103Z" fill="#ECECEC"/>
<path d="M1012.51 207.104H977.594V242.019H1012.51V207.104Z" fill="#ECECEC"/>
<path d="M977.593 207.103H942.678V242.018H977.593V207.103Z" fill="#ECECEC"/>
<path d="M942.68 207.103H907.765V242.018H942.68V207.103Z" fill="#ECECEC"/>
<path d="M872.848 207.103H837.934V242.018H872.848V207.103Z" fill="#ECECEC"/>
<path d="M803.018 207.103H768.104V242.018H803.018V207.103Z" fill="#ECECEC"/>
<path d="M733.19 207.103H698.275V242.018H733.19V207.103Z" fill="#ECECEC"/>
<path d="M663.371 207.103H628.456V242.018H663.371V207.103Z" fill="#ECECEC"/>
<path d="M593.541 207.104H558.626V242.019H593.541V207.104Z" fill="#ECECEC"/>
<path d="M523.712 207.104H488.797V242.019H523.712V207.104Z" fill="#ECECEC"/>
<path d="M453.883 207.103H418.968V242.018H453.883V207.103Z" fill="#ECECEC"/>
<path d="M314.222 207.103H279.307V242.018H314.222V207.103Z" fill="#ECECEC"/>
<path d="M209.489 207.104H174.574V242.019H209.489V207.104Z" fill="#ECECEC"/>
<path d="M174.573 207.103H139.658V242.018H174.573V207.103Z" fill="#ECECEC"/>
<path d="M1920.27 172.188H1885.36V207.103H1920.27V172.188Z" fill="#ECECEC"/>
<path d="M1885.36 172.189H1850.44V207.104H1885.36V172.189Z" fill="#ECECEC"/>
<path d="M1850.44 172.189H1815.53V207.104H1850.44V172.189Z" fill="#ECECEC"/>
<path d="M1815.53 172.189H1780.61V207.104H1815.53V172.189Z" fill="#ECECEC"/>
<path d="M1780.61 172.189H1745.7V207.104H1780.61V172.189Z" fill="#ECECEC"/>
<path d="M1745.7 172.189H1710.78V207.104H1745.7V172.189Z" fill="#ECECEC"/>
<path d="M1710.78 172.189H1675.87V207.104H1710.78V172.189Z" fill="#ECECEC"/>
<path d="M1571.14 172.189H1536.22V207.104H1571.14V172.189Z" fill="#ECECEC"/>
<path d="M1536.22 172.189H1501.3V207.104H1536.22V172.189Z" fill="#ECECEC"/>
<path d="M1501.3 172.189H1466.39V207.104H1501.3V172.189Z" fill="#ECECEC"/>
<path d="M1466.39 172.189H1431.47V207.104H1466.39V172.189Z" fill="#ECECEC"/>
<path d="M1396.56 172.189H1361.64V207.104H1396.56V172.189Z" fill="#ECECEC"/>
<path d="M1361.64 172.188H1326.73V207.103H1361.64V172.188Z" fill="#ECECEC"/>
<path d="M1326.73 172.189H1291.82V207.104H1326.73V172.189Z" fill="#ECECEC"/>
<path d="M1291.82 172.188H1256.9V207.103H1291.82V172.188Z" fill="#ECECEC"/>
<path d="M1256.9 172.188H1221.98V207.103H1256.9V172.188Z" fill="#ECECEC"/>
<path d="M1221.99 172.189H1187.07V207.104H1221.99V172.189Z" fill="#ECECEC"/>
<path d="M1187.07 172.189H1152.16V207.104H1187.07V172.189Z" fill="#ECECEC"/>
<path d="M1117.25 172.188H1082.34V207.103H1117.25V172.188Z" fill="#ECECEC"/>
<path d="M977.593 172.189H942.678V207.104H977.593V172.189Z" fill="#ECECEC"/>
<path d="M942.68 172.188H907.765V207.103H942.68V172.188Z" fill="#ECECEC"/>
<path d="M907.763 172.189H872.848V207.104H907.763V172.189Z" fill="#ECECEC"/>
<path d="M872.847 172.189H837.933V207.104H872.847V172.189Z" fill="#ECECEC"/>
<path d="M837.934 172.189H803.02V207.104H837.934V172.189Z" fill="#ECECEC"/>
<path d="M593.541 172.189H558.626V207.104H593.541V172.189Z" fill="#ECECEC"/>
<path d="M558.626 172.189H523.711V207.104H558.626V172.189Z" fill="#ECECEC"/>
<path d="M418.968 172.188H384.053V207.103H418.968V172.188Z" fill="#ECECEC"/>
<path d="M1920.27 137.285H1885.36V172.2H1920.27V137.285Z" fill="#ECECEC"/>
<path d="M1850.44 137.285H1815.53V172.2H1850.44V137.285Z" fill="#ECECEC"/>
<path d="M1815.53 137.285H1780.61V172.2H1815.53V137.285Z" fill="#ECECEC"/>
<path d="M1745.7 137.285H1710.78V172.2H1745.7V137.285Z" fill="#ECECEC"/>
<path d="M1675.87 137.285H1640.95V172.2H1675.87V137.285Z" fill="#ECECEC"/>
<path d="M1640.95 137.285H1606.04V172.2H1640.95V137.285Z" fill="#ECECEC"/>
<path d="M1571.14 137.285H1536.22V172.2H1571.14V137.285Z" fill="#ECECEC"/>
<path d="M1536.22 137.285H1501.3V172.2H1536.22V137.285Z" fill="#ECECEC"/>
<path d="M1501.3 137.285H1466.39V172.2H1501.3V137.285Z" fill="#ECECEC"/>
<path d="M1431.47 137.285H1396.56V172.2H1431.47V137.285Z" fill="#ECECEC"/>
<path d="M1396.56 137.285H1361.65V172.2H1396.56V137.285Z" fill="#ECECEC"/>
<path d="M1361.64 137.285H1326.73V172.2H1361.64V137.285Z" fill="#ECECEC"/>
<path d="M1291.82 137.285H1256.9V172.2H1291.82V137.285Z" fill="#ECECEC"/>
<path d="M1256.9 137.285H1221.98V172.2H1256.9V137.285Z" fill="#ECECEC"/>
<path d="M1221.99 137.285H1187.07V172.2H1221.99V137.285Z" fill="#ECECEC"/>
<path d="M1152.17 137.285H1117.25V172.2H1152.17V137.285Z" fill="#ECECEC"/>
<path d="M1117.25 137.285H1082.34V172.2H1117.25V137.285Z" fill="#ECECEC"/>
<path d="M1082.34 137.285H1047.42V172.2H1082.34V137.285Z" fill="#ECECEC"/>
<path d="M1012.51 137.285H977.594V172.2H1012.51V137.285Z" fill="#ECECEC"/>
<path d="M977.593 137.285H942.678V172.2H977.593V137.285Z" fill="#ECECEC"/>
<path d="M942.68 137.285H907.765V172.2H942.68V137.285Z" fill="#ECECEC"/>
<path d="M907.764 137.285H872.849V172.2H907.764V137.285Z" fill="#ECECEC"/>
<path d="M872.848 137.285H837.934V172.2H872.848V137.285Z" fill="#ECECEC"/>
<path d="M803.018 137.285H768.104V172.2H803.018V137.285Z" fill="#ECECEC"/>
<path d="M733.19 137.285H698.275V172.2H733.19V137.285Z" fill="#ECECEC"/>
<path d="M663.371 137.285H628.456V172.2H663.371V137.285Z" fill="#ECECEC"/>
<path d="M593.541 137.285H558.626V172.2H593.541V137.285Z" fill="#ECECEC"/>
<path d="M523.711 137.285H488.796V172.2H523.711V137.285Z" fill="#ECECEC"/>
<path d="M453.883 137.285H418.968V172.2H453.883V137.285Z" fill="#ECECEC"/>
<path d="M384.053 137.285H349.138V172.2H384.053V137.285Z" fill="#ECECEC"/>
<path d="M244.404 137.285H209.489V172.2H244.404V137.285Z" fill="#ECECEC"/>
<path d="M1920.27 102.37H1885.36V137.285H1920.27V102.37Z" fill="#ECECEC"/>
<path d="M1885.36 102.37H1850.44V137.285H1885.36V102.37Z" fill="#ECECEC"/>
<path d="M1850.44 102.37H1815.53V137.285H1850.44V102.37Z" fill="#ECECEC"/>
<path d="M1815.53 102.37H1780.61V137.285H1815.53V102.37Z" fill="#ECECEC"/>
<path d="M1780.61 102.37H1745.7V137.285H1780.61V102.37Z" fill="#ECECEC"/>
<path d="M1745.7 102.37H1710.78V137.285H1745.7V102.37Z" fill="#ECECEC"/>
<path d="M1675.87 102.37H1640.95V137.285H1675.87V102.37Z" fill="#ECECEC"/>
<path d="M1640.95 102.37H1606.04V137.285H1640.95V102.37Z" fill="#ECECEC"/>
<path d="M1606.05 102.37H1571.13V137.285H1606.05V102.37Z" fill="#ECECEC"/>
<path d="M1536.22 102.37H1501.3V137.285H1536.22V102.37Z" fill="#ECECEC"/>
<path d="M1501.3 102.37H1466.39V137.285H1501.3V102.37Z" fill="#ECECEC"/>
<path d="M1466.39 102.37H1431.47V137.285H1466.39V102.37Z" fill="#ECECEC"/>
<path d="M1431.47 102.37H1396.56V137.285H1431.47V102.37Z" fill="#ECECEC"/>
<path d="M1396.56 102.37H1361.65V137.285H1396.56V102.37Z" fill="#ECECEC"/>
<path d="M1326.73 102.37H1291.82V137.285H1326.73V102.37Z" fill="#ECECEC"/>
<path d="M1291.82 102.369H1256.9V137.284H1291.82V102.369Z" fill="#ECECEC"/>
<path d="M1256.9 102.369H1221.98V137.284H1256.9V102.369Z" fill="#ECECEC"/>
<path d="M1187.07 102.37H1152.16V137.285H1187.07V102.37Z" fill="#ECECEC"/>
<path d="M1152.17 102.37H1117.25V137.285H1152.17V102.37Z" fill="#ECECEC"/>
<path d="M1117.25 102.37H1082.34V137.285H1117.25V102.37Z" fill="#ECECEC"/>
<path d="M1082.34 102.37H1047.42V137.285H1082.34V102.37Z" fill="#ECECEC"/>
<path d="M1047.42 102.37H1012.51V137.285H1047.42V102.37Z" fill="#ECECEC"/>
<path d="M977.593 102.37H942.678V137.285H977.593V102.37Z" fill="#ECECEC"/>
<path d="M942.679 102.37H907.764V137.285H942.679V102.37Z" fill="#ECECEC"/>
<path d="M907.763 102.37H872.848V137.285H907.763V102.37Z" fill="#ECECEC"/>
<path d="M628.457 102.37H593.542V137.285H628.457V102.37Z" fill="#ECECEC"/>
<path d="M418.967 102.37H384.052V137.285H418.967V102.37Z" fill="#ECECEC"/>
<path d="M314.221 102.37H279.306V137.285H314.221V102.37Z" fill="#ECECEC"/>
<path d="M1885.36 67.4555H1850.44V102.37H1885.36V67.4555Z" fill="#ECECEC"/>
<path d="M1850.44 67.4555H1815.53V102.37H1850.44V67.4555Z" fill="#ECECEC"/>
<path d="M1780.61 67.4555H1745.7V102.37H1780.61V67.4555Z" fill="#ECECEC"/>
<path d="M1745.7 67.4555H1710.78V102.37H1745.7V67.4555Z" fill="#ECECEC"/>
<path d="M1710.78 67.4555H1675.87V102.37H1710.78V67.4555Z" fill="#ECECEC"/>
<path d="M1640.95 67.4555H1606.04V102.37H1640.95V67.4555Z" fill="#ECECEC"/>
<path d="M1606.05 67.4555H1571.13V102.37H1606.05V67.4555Z" fill="#ECECEC"/>
<path d="M1571.14 67.4549H1536.22V102.37H1571.14V67.4549Z" fill="#ECECEC"/>
<path d="M1536.22 67.4555H1501.3V102.37H1536.22V67.4555Z" fill="#ECECEC"/>
<path d="M1501.3 67.4555H1466.39V102.37H1501.3V67.4555Z" fill="#ECECEC"/>
<path d="M1466.39 67.4555H1431.47V102.37H1466.39V67.4555Z" fill="#ECECEC"/>
<path d="M1431.47 67.4549H1396.56V102.37H1431.47V67.4549Z" fill="#ECECEC"/>
<path d="M1361.65 67.4555H1326.73V102.37H1361.65V67.4555Z" fill="#ECECEC"/>
<path d="M1291.82 67.4555H1256.9V102.37H1291.82V67.4555Z" fill="#ECECEC"/>
<path d="M1221.99 67.4555H1187.07V102.37H1221.99V67.4555Z" fill="#ECECEC"/>
<path d="M1187.07 67.4555H1152.16V102.37H1187.07V67.4555Z" fill="#ECECEC"/>
<path d="M1152.17 67.4555H1117.25V102.37H1152.17V67.4555Z" fill="#ECECEC"/>
<path d="M1082.34 67.4555H1047.42V102.37H1082.34V67.4555Z" fill="#ECECEC"/>
<path d="M1012.51 67.4555H977.594V102.37H1012.51V67.4555Z" fill="#ECECEC"/>
<path d="M977.593 67.4555H942.678V102.37H977.593V67.4555Z" fill="#ECECEC"/>
<path d="M942.679 67.4555H907.764V102.37H942.679V67.4555Z" fill="#ECECEC"/>
<path d="M907.763 67.4555H872.848V102.37H907.763V67.4555Z" fill="#ECECEC"/>
<path d="M872.847 67.4555H837.933V102.37H872.847V67.4555Z" fill="#ECECEC"/>
<path d="M803.018 67.4555H768.104V102.37H803.018V67.4555Z" fill="#ECECEC"/>
<path d="M733.189 67.4555H698.274V102.37H733.189V67.4555Z" fill="#ECECEC"/>
<path d="M593.541 67.4555H558.626V102.37H593.541V67.4555Z" fill="#ECECEC"/>
<path d="M453.882 67.4555H418.967V102.37H453.882V67.4555Z" fill="#ECECEC"/>
<path d="M384.052 67.4555H349.137V102.37H384.052V67.4555Z" fill="#ECECEC"/>
<path d="M314.221 67.4555H279.306V102.37H314.221V67.4555Z" fill="#ECECEC"/>
<path d="M174.573 67.4555H139.658V102.37H174.573V67.4555Z" fill="#ECECEC"/>
<path d="M104.745 67.4555H69.8301V102.37H104.745V67.4555Z" fill="#ECECEC"/>
<path d="M34.9149 67.4559H0L0 102.371H34.9149V67.4559Z" fill="#ECECEC"/>
<path d="M1885.36 32.5409H1850.44V67.4558H1885.36V32.5409Z" fill="#ECECEC"/>
<path d="M1850.44 32.5409H1815.53V67.4558H1850.44V32.5409Z" fill="#ECECEC"/>
<path d="M1815.53 32.5409H1780.61V67.4558H1815.53V32.5409Z" fill="#ECECEC"/>
<path d="M1745.7 32.5409H1710.78V67.4558H1745.7V32.5409Z" fill="#ECECEC"/>
<path d="M1710.78 32.5409H1675.87V67.4558H1710.78V32.5409Z" fill="#ECECEC"/>
<path d="M1675.87 32.5409H1640.95V67.4558H1675.87V32.5409Z" fill="#ECECEC"/>
<path d="M1640.95 32.5409H1606.04V67.4558H1640.95V32.5409Z" fill="#ECECEC"/>
<path d="M1606.05 32.5409H1571.13V67.4558H1606.05V32.5409Z" fill="#ECECEC"/>
<path d="M1571.13 32.5409H1536.22V67.4558H1571.13V32.5409Z" fill="#ECECEC"/>
<path d="M1536.22 32.5409H1501.3V67.4558H1536.22V32.5409Z" fill="#ECECEC"/>
<path d="M1501.3 32.5409H1466.39V67.4558H1501.3V32.5409Z" fill="#ECECEC"/>
<path d="M1466.39 32.5409H1431.47V67.4558H1466.39V32.5409Z" fill="#ECECEC"/>
<path d="M1431.47 32.5409H1396.56V67.4558H1431.47V32.5409Z" fill="#ECECEC"/>
<path d="M1396.56 32.5409H1361.64V67.4558H1396.56V32.5409Z" fill="#ECECEC"/>
<path d="M1361.65 32.5409H1326.73V67.4558H1361.65V32.5409Z" fill="#ECECEC"/>
<path d="M1326.73 32.5409H1291.82V67.4558H1326.73V32.5409Z" fill="#ECECEC"/>
<path d="M1291.82 32.5414H1256.9V67.4563H1291.82V32.5414Z" fill="#ECECEC"/>
<path d="M1256.9 32.5414H1221.98V67.4563H1256.9V32.5414Z" fill="#ECECEC"/>
<path d="M1187.07 32.5409H1152.16V67.4558H1187.07V32.5409Z" fill="#ECECEC"/>
<path d="M1152.17 32.5414H1117.25V67.4563H1152.17V32.5414Z" fill="#ECECEC"/>
<path d="M1047.42 32.5409H1012.51V67.4558H1047.42V32.5409Z" fill="#ECECEC"/>
<path d="M977.593 32.5409H942.678V67.4558H977.593V32.5409Z" fill="#ECECEC"/>
<path d="M942.679 32.5409H907.764V67.4558H942.679V32.5409Z" fill="#ECECEC"/>
<path d="M907.763 32.5409H872.848V67.4558H907.763V32.5409Z" fill="#ECECEC"/>
<path d="M837.934 32.5409H803.02V67.4558H837.934V32.5409Z" fill="#ECECEC"/>
<path d="M733.189 32.5409H698.274V67.4558H733.189V32.5409Z" fill="#ECECEC"/>
<path d="M698.286 32.5409H663.371V67.4558H698.286V32.5409Z" fill="#ECECEC"/>
<path d="M663.371 32.5414H628.456V67.4563H663.371V32.5414Z" fill="#ECECEC"/>
<path d="M1920.27 -2.37502L1885.36 -2.37502V32.5398H1920.27V-2.37502Z" fill="#ECECEC"/>
<path d="M1850.44 -2.37502L1815.53 -2.37502V32.5398H1850.44V-2.37502Z" fill="#ECECEC"/>
<path d="M1780.61 -2.37502L1745.7 -2.37502V32.5398H1780.61V-2.37502Z" fill="#ECECEC"/>
<path d="M1710.78 -2.37453L1675.87 -2.37453V32.5403H1710.78V-2.37453Z" fill="#ECECEC"/>
<path d="M1640.95 -2.37453L1606.04 -2.37453V32.5403H1640.95V-2.37453Z" fill="#ECECEC"/>
<path d="M1571.14 -2.37453L1536.22 -2.37453V32.5403H1571.14V-2.37453Z" fill="#ECECEC"/>
<path d="M1501.3 -2.37502L1466.39 -2.37502V32.5398H1501.3V-2.37502Z" fill="#ECECEC"/>
<path d="M1431.47 -2.37453L1396.56 -2.37453V32.5403H1431.47V-2.37453Z" fill="#ECECEC"/>
<path d="M1396.56 -2.37502L1361.64 -2.37502V32.5398H1396.56V-2.37502Z" fill="#ECECEC"/>
<path d="M1361.65 -2.37502L1326.73 -2.37502V32.5398H1361.65V-2.37502Z" fill="#ECECEC"/>
<path d="M1291.82 -2.37502L1256.9 -2.37502V32.5398H1291.82V-2.37502Z" fill="#ECECEC"/>
<path d="M1221.99 -2.37502L1187.07 -2.37502V32.5398H1221.99V-2.37502Z" fill="#ECECEC"/>
<path d="M1152.17 -2.37453L1117.25 -2.37453V32.5403H1152.17V-2.37453Z" fill="#ECECEC"/>
<path d="M1117.25 -2.37453L1082.34 -2.37453V32.5403H1117.25V-2.37453Z" fill="#ECECEC"/>
<path d="M1082.34 -2.37502L1047.42 -2.37502V32.5398H1082.34V-2.37502Z" fill="#ECECEC"/>
<path d="M1047.42 -2.37453L1012.51 -2.37453V32.5403H1047.42V-2.37453Z" fill="#ECECEC"/>
<path d="M1012.51 -2.37502L977.594 -2.37502V32.5398H1012.51V-2.37502Z" fill="#ECECEC"/>
<path d="M942.68 -2.37453L907.765 -2.37453V32.5403H942.68V-2.37453Z" fill="#ECECEC"/>
<path d="M907.763 -2.37502L872.848 -2.37502V32.5398H907.763V-2.37502Z" fill="#ECECEC"/>
<path d="M872.847 -2.37502L837.933 -2.37502V32.5398H872.847V-2.37502Z" fill="#ECECEC"/>
<path d="M837.934 -2.37502L803.02 -2.37502V32.5398H837.934V-2.37502Z" fill="#ECECEC"/>
<path d="M803.018 -2.37453L768.104 -2.37453V32.5403H803.018V-2.37453Z" fill="#ECECEC"/>
<path d="M733.19 -2.37453L698.275 -2.37453V32.5403H733.19V-2.37453Z" fill="#ECECEC"/>
<path d="M698.286 -2.37502L663.371 -2.37502V32.5398H698.286V-2.37502Z" fill="#ECECEC"/>
<path d="M593.541 -2.37502L558.626 -2.37502V32.5398H593.541V-2.37502Z" fill="#ECECEC"/>
<path d="M523.712 -2.37502L488.797 -2.37502V32.5398H523.712V-2.37502Z" fill="#ECECEC"/>
<path d="M384.053 -2.37453L349.138 -2.37453V32.5403H384.053V-2.37453Z" fill="#ECECEC"/>
</g>
</g>
<defs>
<clipPath id="clip0_11050_6">
<rect width="1920" height="1080" fill="white"/>
</clipPath>
</defs>
</svg>
