<svg width="318" height="67" viewBox="0 0 318 67" fill="none" xmlns="http://www.w3.org/2000/svg">
<path d="M92.3171 52.0762V31.2808H89.2178V25.1255H95.5944V30.2894H97.4809C98.198 28.5232 99.3434 27.1756 100.917 26.2468C102.491 25.318 104.291 24.856 106.331 24.856H108.579V30.1114H106.062C103.516 30.1114 101.591 30.8477 100.291 32.3107C98.9873 33.7786 98.3376 35.7373 98.3376 38.1966V52.0762H92.3171Z" fill="#0F0F1C"/>
<path d="M119.578 52.5709C116.493 52.5709 114.058 51.8057 112.277 50.2801C110.497 48.7545 109.606 46.7476 109.606 44.2595C109.606 41.7714 110.506 39.6346 112.301 38.1956C114.097 36.7566 116.671 36.0395 120.026 36.0395H128.558V34.9182C128.558 31.3231 126.523 29.528 122.451 29.528C119.005 29.528 116.941 30.7697 116.253 33.2578H110.145C110.656 30.4713 111.979 28.3345 114.121 26.833C116.262 25.3362 119.054 24.5854 122.499 24.5854C126.364 24.5854 129.309 25.4758 131.35 27.2565C133.385 29.0371 134.406 31.6215 134.406 35.0048V45.9199H137.327V52.0752H130.993V47.8064H129.107C128.178 49.3032 126.922 50.4726 125.334 51.31C123.746 52.1474 121.83 52.5661 119.583 52.5661L119.578 52.5709ZM120.478 47.8112C122.004 47.8112 123.38 47.5129 124.612 46.9113C125.839 46.3145 126.807 45.5108 127.509 44.5098C128.212 43.5087 128.563 42.3922 128.563 41.165V40.3132H120.343C117.047 40.3132 115.401 41.5404 115.401 43.9948C115.401 45.1932 115.848 46.1268 116.748 46.8006C117.648 47.4744 118.89 47.8112 120.478 47.8112Z" fill="#0F0F1C"/>
<path d="M142.219 52.0768V31.2814H139.12V25.1261H145.496V29.3949H147.383C148.34 27.8693 149.621 26.695 151.223 25.8672C152.826 25.0443 154.765 24.6304 157.042 24.6304C160.637 24.6304 163.442 25.641 165.464 27.6623C167.485 29.6836 168.496 32.3883 168.496 35.7716V52.0768H162.388V36.8497C162.388 34.6358 161.796 32.9418 160.613 31.7723C159.429 30.6029 157.686 30.0205 155.381 30.0205C153.076 30.0205 151.324 30.6029 150.126 31.7723C148.928 32.9418 148.331 34.631 148.331 36.8497V52.0768H142.224H142.219Z" fill="#0F0F1C"/>
<path d="M185.474 52.6177C182.75 52.6177 180.425 52.0402 178.51 50.89C176.595 49.7398 175.141 48.1131 174.155 46.0148C173.168 43.9213 172.672 41.4476 172.672 38.6033C172.672 35.7591 173.158 33.2806 174.131 31.1678C175.103 29.0551 176.513 27.4332 178.351 26.2926C180.194 25.1568 182.384 24.5841 184.93 24.5841C187.023 24.5841 188.823 24.9836 190.32 25.7729C191.817 26.5669 192.972 27.6979 193.78 29.1658H193.958V14.3477H200.065V45.9234H203.121V52.0787H196.788V47.8099H194.902C193.973 49.3692 192.721 50.5579 191.153 51.3809C189.579 52.2039 187.688 52.6177 185.469 52.6177H185.474ZM186.508 47.3623C188.785 47.3623 190.594 46.7174 191.942 45.4325C193.289 44.1475 193.963 42.4101 193.963 40.2204V36.9863C193.963 34.8014 193.289 33.064 191.942 31.7742C190.594 30.4892 188.78 29.8443 186.508 29.8443C184.02 29.8443 182.115 30.624 180.782 32.1785C179.448 33.7378 178.784 35.8794 178.784 38.6033C178.784 41.3273 179.448 43.4689 180.782 45.0282C182.115 46.5875 184.02 47.3623 186.508 47.3623Z" fill="#0F0F1C"/>
<path d="M215.742 52.5709C212.657 52.5709 210.222 51.8057 208.441 50.2801C206.66 48.7545 205.77 46.7476 205.77 44.2595C205.77 41.7714 206.67 39.6346 208.465 38.1956C210.26 36.7566 212.835 36.0395 216.189 36.0395H224.722V34.9182C224.722 31.3231 222.686 29.528 218.615 29.528C215.169 29.528 213.104 30.7697 212.416 33.2578H206.309C206.819 30.4713 208.143 28.3345 210.284 26.833C212.426 25.3362 215.217 24.5854 218.663 24.5854C222.527 24.5854 225.473 25.4758 227.513 27.2565C229.549 29.0371 230.569 31.6215 230.569 35.0048V45.9199H233.49V52.0752H227.157V47.8064H225.271C224.342 49.3032 223.086 50.4726 221.497 51.31C219.909 52.1474 217.994 52.5661 215.746 52.5661L215.742 52.5709ZM216.642 47.8112C218.167 47.8112 219.544 47.5129 220.776 46.9113C222.003 46.3145 222.97 45.5108 223.673 44.5098C224.375 43.5087 224.727 42.3922 224.727 41.165V40.3132H216.507C213.21 40.3132 211.564 41.5404 211.564 43.9948C211.564 45.1932 212.012 46.1268 212.912 46.8006C213.812 47.4744 215.053 47.8112 216.642 47.8112Z" fill="#0F0F1C"/>
<path d="M238.39 52.0768V31.2814H235.291V25.1261H241.668V29.3949H243.732C244.57 27.8693 245.744 26.695 247.26 25.8672C248.771 25.0443 250.605 24.6304 252.761 24.6304C254.917 24.6304 256.707 25.0346 258.218 25.8432C259.729 26.6517 260.952 27.8645 261.88 29.4815H262.015C263.993 26.2474 267.073 24.6304 271.27 24.6304C274.653 24.6304 277.319 25.6121 279.263 27.5709C281.208 29.5344 282.185 32.2055 282.185 35.5887V52.072H276.077V36.6668C276.077 32.2343 273.95 30.0205 269.701 30.0205C265.451 30.0205 263.324 32.2392 263.324 36.6668V52.072H257.217V36.6668C257.217 32.2343 255.075 30.0205 250.792 30.0205C248.728 30.0205 247.159 30.5836 246.1 31.7049C245.036 32.8263 244.507 34.4818 244.507 36.6668V52.072H238.4L238.39 52.0768Z" fill="#0F0F1C"/>
<path d="M299.023 52.5773C295.428 52.5773 292.636 51.6052 290.644 49.6561C288.651 47.7118 287.655 45.06 287.655 41.7056V25.1309H293.762V40.4928C293.762 42.7114 294.33 44.3766 295.471 45.5028C296.607 46.6241 298.301 47.1872 300.548 47.1872C302.796 47.1872 304.644 46.5904 305.914 45.3921C307.185 44.1937 307.825 42.5189 307.825 40.3629V25.1357H313.932V45.9311H317.031V52.0864H310.698V47.8176H308.811C307.791 49.3769 306.492 50.556 304.904 51.3646C303.315 52.1731 301.357 52.5773 299.018 52.5773H299.023Z" fill="#0F0F1C"/>
<path d="M44.7082 54.4147L22.9581 66.9719L1.20801 54.4147L22.9581 41.8574L44.7082 54.4147Z" fill="#0F0F1C"/>
<path d="M24.1665 14.6509V39.7653C31.4165 43.9511 38.6666 48.1368 45.9166 52.3226V27.2081C38.6666 23.0224 31.4165 18.8366 24.1665 14.6509ZM40.8174 42.7089C39.7106 42.0709 39.1547 41.7471 38.0479 41.109V34.7869C38.0479 33.9411 37.8497 33.1774 37.4534 32.5104C37.057 31.8385 36.4819 31.2827 35.7279 30.8477C34.969 30.4127 34.3939 30.3015 34.0024 30.5142C33.6109 30.7268 33.4079 31.2585 33.4079 32.1092V38.4313C32.301 37.7933 31.7452 37.4695 30.6384 36.8315V28.431C30.0922 28.1168 29.8167 27.9573 29.2705 27.6431V24.4821C30.3919 25.1297 30.9525 25.4536 32.0739 26.1013V27.9911L32.7747 28.3971C33.1662 27.9525 33.6544 27.7205 34.244 27.6915C34.8337 27.6673 35.5684 27.9041 36.448 28.4116C37.8401 29.214 38.9131 30.2773 39.6767 31.5969C40.4404 32.9164 40.8222 34.3132 40.8222 35.7923V42.7089H40.8174Z" fill="#0F0F1C"/>
<path d="M0 27.2081V52.3226C7.25003 48.1368 14.5001 43.9511 21.7501 39.7653V14.6509C14.5001 18.8366 7.25003 23.0224 0 27.2081ZM14.6644 28.228C14.2777 28.4503 14.0844 28.5615 13.6977 28.7886C12.8277 29.2913 12.1945 29.939 11.7885 30.7413C11.3825 31.5437 11.1795 32.404 11.1795 33.3272V39.166C10.092 39.7943 9.54587 40.1085 8.45836 40.7369V32.3364C7.91219 32.6506 7.63669 32.8101 7.09052 33.1242V29.9632C8.21186 29.3155 8.77253 28.9916 9.89387 28.344V30.6157C10.1742 30.4562 10.3144 30.374 10.5947 30.2097C10.8605 29.2478 11.2859 28.3971 11.861 27.6673C12.441 26.9374 13.0887 26.3623 13.8137 25.9418C14.152 25.7436 14.326 25.6469 14.6644 25.4487V28.2231V28.228Z" fill="#0F0F1C"/>
<path d="M60.3504 32.5074C59.9105 32.2802 59.316 32.3817 58.5717 32.8119C57.7259 33.3001 57.0927 33.9574 56.6673 34.7791C56.242 35.6008 56.0342 36.5143 56.0342 37.5148C56.0342 38.5154 56.2468 39.1872 56.6673 39.5207C57.0878 39.8542 57.7259 39.7769 58.5717 39.2887C59.316 38.8585 59.9105 38.2737 60.3504 37.539C60.7902 36.8043 61.0077 36.0116 61.0077 35.1658V34.1266C61.0077 33.2808 60.7902 32.7394 60.3504 32.5122V32.5074Z" fill="#0F0F1C"/>
<path d="M48.3335 27.2071V52.3216C55.5835 48.1359 62.8335 43.9501 70.0836 39.7644V14.6499C62.8335 18.8356 55.5835 23.0214 48.3335 27.2071ZM65.1487 38.034C64.0274 38.6817 63.4667 39.0055 62.3454 39.6532V37.7633C62.065 37.9228 61.9249 38.005 61.6445 38.1693C61.2869 39.0442 60.8132 39.8369 60.2187 40.5522C59.6242 41.2676 58.904 41.8717 58.0582 42.3599C57.0335 42.9496 56.1635 43.2009 55.4482 43.1139C54.7329 43.0269 54.1867 42.6354 53.8193 41.9442C53.452 41.2482 53.2683 40.3057 53.2683 39.1119C53.2683 37.918 53.4472 36.7435 53.8 35.6318C54.1577 34.5201 54.6749 33.5196 55.3612 32.6302C56.0475 31.7409 56.8644 31.0207 57.8214 30.4649C58.556 30.0395 59.1892 29.8317 59.716 29.8414C60.2429 29.851 60.6537 30.0637 60.9437 30.4745C60.9727 30.46 60.9824 30.4504 61.0114 30.4359V24.2297C62.1182 23.5917 62.674 23.2679 63.7809 22.6299V35.656C64.3271 35.3418 64.6026 35.1823 65.1487 34.8681V38.0292V38.034Z" fill="#0F0F1C"/>
<path d="M68.8747 12.5572L47.1246 25.1145L25.3745 12.5572L47.1246 0L68.8747 12.5572Z" fill="#0F0F1C"/>
</svg>
