<svg width="210" height="200" viewBox="0 0 210 200" fill="none" xmlns="http://www.w3.org/2000/svg">
<path d="M133.517 162.5L68.5639 199.999L3.61035 162.5L68.5639 125L133.517 162.5Z" fill="#0F0F1C"/>
<path d="M72.1709 43.75V118.749C93.8221 131.249 115.473 143.749 137.124 156.249V81.2496C115.473 68.7497 93.8221 56.2499 72.1709 43.75ZM121.896 127.539C118.591 125.634 116.931 124.667 113.626 122.762V103.882C113.626 101.356 113.034 99.0756 111.85 97.0837C110.667 95.0774 108.949 93.4175 106.697 92.1184C104.431 90.8193 102.713 90.4873 101.544 91.1224C100.375 91.7575 99.7689 93.3453 99.7689 95.8857V114.765C96.4635 112.86 94.8036 111.893 91.4982 109.988V84.9014C89.8671 83.9632 89.0444 83.4868 87.4133 82.5486V73.1088C90.762 75.043 92.4364 76.01 95.7851 77.9442V83.5879L97.878 84.8003C99.0472 83.4724 100.505 82.7796 102.266 82.693C104.027 82.6208 106.221 83.3281 108.848 84.8436C113.005 87.2397 116.209 90.4152 118.49 94.3557C120.771 98.2962 121.911 102.468 121.911 106.884V127.539H121.896Z" fill="#0F0F1C"/>
<path d="M0 81.2496V156.249C21.6512 143.749 43.3023 131.249 64.9535 118.749V43.75C43.3023 56.2499 21.6512 68.7497 0 81.2496ZM43.7931 84.2952C42.6384 84.9591 42.061 85.2911 40.9063 85.9695C38.3081 87.4706 36.4173 89.4048 35.2048 91.8008C33.9923 94.1969 33.3861 96.7661 33.3861 99.523V116.959C30.1384 118.836 28.5074 119.774 25.2597 121.65V96.5641C23.6286 97.5023 22.8059 97.9786 21.1748 98.9168V89.477C24.5236 87.5428 26.1979 86.5757 29.5466 84.6416V91.4256C30.3838 90.9492 30.8024 90.7039 31.6396 90.2131C32.4334 87.3407 33.7037 84.8003 35.4213 82.6208C37.1534 80.4413 39.0876 78.7236 41.2527 77.4679C42.2631 76.8761 42.7827 76.5874 43.7931 75.9956V84.2807V84.2952Z" fill="#0F0F1C"/>
<path d="M180.224 97.0817C178.91 96.4033 177.135 96.7064 174.912 97.991C172.386 99.4488 170.495 101.412 169.225 103.866C167.955 106.319 167.334 109.047 167.334 112.035C167.334 115.023 167.969 117.029 169.225 118.025C170.481 119.021 172.386 118.79 174.912 117.333C177.135 116.048 178.91 114.301 180.224 112.107C181.537 109.913 182.187 107.546 182.187 105.02V101.917C182.187 99.3911 181.537 97.7745 180.224 97.0961V97.0817Z" fill="#0F0F1C"/>
<path d="M144.343 81.2496V156.249C165.994 143.749 187.645 131.249 209.296 118.749V43.75C187.645 56.2499 165.994 68.7497 144.343 81.2496ZM194.559 113.582C191.21 115.516 189.536 116.483 186.187 118.417V112.773C185.35 113.25 184.931 113.495 184.094 113.986C183.026 116.598 181.612 118.966 179.836 121.102C178.061 123.238 175.91 125.042 173.384 126.5C170.324 128.261 167.726 129.012 165.59 128.752C163.454 128.492 161.822 127.323 160.725 125.259C159.628 123.18 159.08 120.366 159.08 116.801C159.08 113.235 159.614 109.728 160.668 106.408C161.736 103.088 163.28 100.1 165.33 97.4445C167.38 94.7887 169.819 92.638 172.677 90.9781C174.871 89.7079 176.762 89.0872 178.335 89.1161C179.908 89.145 181.135 89.7801 182.001 91.007C182.088 90.9637 182.117 90.9348 182.203 90.8915V72.3582C185.509 70.4529 187.169 69.4859 190.474 67.5806V106.48C192.105 105.542 192.928 105.066 194.559 104.127V113.567V113.582Z" fill="#0F0F1C"/>
<path d="M205.688 37.4996L140.735 74.9991L75.7812 37.4996L140.735 0L205.688 37.4996Z" fill="#0F0F1C"/>
</svg>
